<?xml version="1.0" standalone="no"?>
<!DOCTYPE svg PUBLIC "-//W3C//DTD SVG 20010904//EN"
 "http://www.w3.org/TR/2001/REC-SVG-20010904/DTD/svg10.dtd">
<svg version="1.0" xmlns="http://www.w3.org/2000/svg"
 width="264.000000pt" height="264.000000pt" viewBox="0 0 264.000000 264.000000"
 preserveAspectRatio="xMidYMid meet">
<metadata>
Created by potrace 1.14, written by Peter Selinger 2001-2017
</metadata>
<g transform="translate(0.000000,264.000000) scale(0.100000,-0.100000)"
fill="#000000" stroke="none">
<path d="M840 2092 c-107 -58 -116 -224 -16 -283 20 -12 36 -28 36 -36 0 -22
-107 -363 -126 -399 -22 -45 -86 -78 -135 -71 -52 7 -86 37 -144 127 -27 41
-75 115 -107 163 -32 49 -58 95 -58 102 0 8 9 29 20 47 44 73 10 184 -70 226
-164 86 -319 -138 -183 -265 21 -21 49 -35 74 -39 21 -4 43 -12 48 -18 5 -6
28 -101 50 -210 23 -110 48 -229 57 -265 23 -100 95 -456 110 -545 7 -43 18
-84 24 -90 16 -16 1785 -15 1801 1 7 7 13 22 15 35 17 114 27 167 62 333 48
226 141 670 147 703 6 33 24 52 49 52 33 0 98 42 118 77 59 100 -3 231 -117
248 -101 16 -193 -75 -181 -179 3 -27 12 -59 21 -72 8 -13 15 -29 15 -37 0
-12 -86 -152 -187 -305 -79 -118 -215 -120 -266 -2 -19 42 -117 365 -117 383
0 7 13 21 30 30 105 62 102 224 -5 284 -161 90 -325 -125 -195 -256 17 -16 30
-35 30 -41 0 -7 -41 -91 -92 -189 -50 -97 -96 -186 -102 -198 -16 -32 -85 -73
-123 -73 -40 0 -80 19 -109 52 -23 25 -214 390 -214 409 0 6 12 20 26 31 73
58 64 201 -16 258 -45 32 -123 38 -170 12z"/>
</g>
</svg>
